<?xml version="1.0" ?><!DOCTYPE svg  PUBLIC '-//W3C//DTD SVG 1.1//EN'  'http://www.w3.org/Graphics/SVG/1.1/DTD/svg11.dtd'><svg enable-background="new 0 0 64 64" height="64px" id="Layer_1" version="1.1" viewBox="0 0 64 64" width="64px" xml:space="preserve" xmlns="http://www.w3.org/2000/svg" xmlns:xlink="http://www.w3.org/1999/xlink"><g><g><path d="M32.001,1.514C19.022,1.514,8.5,12.175,8.5,25.324c0,17.706,18.794,37.162,23.501,37.162    S55.5,43.03,55.5,25.324C55.5,12.175,44.979,1.514,32.001,1.514z M32.001,39.851c-7.875,0-14.258-6.468-14.258-14.446    c0-3.163,1.004-6.088,2.707-8.466c0.183,3.056,2.679,5.479,5.741,5.479c3.18,0,5.757-2.611,5.757-5.836    c0-2.302-1.317-4.287-3.229-5.236c1.054-0.251,2.152-0.39,3.282-0.39c7.874,0,14.258,6.471,14.258,14.449    S39.875,39.851,32.001,39.851z" fill="#3EA2C4"/></g><path d="M33.551,1.571c0.356,2.876,0.591,6.096,0.746,9.589c6.78,1.117,11.962,7.059,11.962,14.244   c0,7.097-5.056,12.987-11.714,14.204c-0.211,8.367-1.167,16.156-2.688,22.86c0.047,0.004,0.1,0.018,0.144,0.018   c4.707,0,23.499-19.456,23.499-37.162C55.5,12.702,45.808,2.381,33.551,1.571z" fill="#1D87A8"/><circle cx="26.317" cy="16.57" fill="#1D87A8" r="3.434"/><circle cx="24.292" cy="15.816" fill="#C5F3FF" r="2.321"/><circle cx="28.48" cy="19.489" fill="#C5F3FF" r="0.714"/><circle cx="29.235" cy="17.227" fill="#C5F3FF" r="0.516"/><g><path d="M45.755,29.163c-1.635,6.153-7.166,10.688-13.754,10.688c-6.319,0-11.671-4.17-13.54-9.938    c0.626,8.619,6.486,15.376,13.631,15.376C39.442,45.288,45.422,38.134,45.755,29.163z" fill="#1D87A8"/></g><path d="M32.001,3.578c12.594,0,22.869,10.037,23.47,22.644c0.01-0.3,0.029-0.599,0.029-0.897   c0-13.149-10.521-23.811-23.499-23.811S8.5,12.175,8.5,25.324c0,0.299,0.02,0.598,0.029,0.897   C9.13,13.615,19.409,3.578,32.001,3.578z" fill="#4FCCED"/></g></svg>